<svg width="693" height="85" viewBox="0 0 693 85" fill="none" xmlns="http://www.w3.org/2000/svg">
<path d="M37.5488 0L54.1327 49.4909C46.2364 51.8744 39.3666 53.2519 34.6356 53.4429C34.1017 51.8153 33.5235 50.037 32.9011 48.1078C32.6286 47.2634 32.3477 46.39 32.0583 45.4878C31.7064 44.3907 31.3419 43.2509 30.9649 42.0683L30.9421 42.082L30.1459 39.4942C29.6844 38.0412 29.2059 36.5298 28.7102 34.9601C27.6353 31.5564 26.48 27.8783 25.2441 23.9258C21.2337 11.1198 18.7272 3.14453 17.7246 0H37.5488Z" fill="white"/>
<path d="M103.789 0C103.021 2.63913 102.129 5.62299 101.114 8.95157C99.8701 13.0324 98.4403 17.6313 96.825 22.7485L96.4746 23.8574C96.1204 24.9826 95.7681 26.0989 95.4177 27.2065C95.0205 28.4619 94.6259 29.7059 94.2336 30.9387C89.015 34.9489 80.032 39.7723 69.3018 44.1176L83.7597 0H103.789Z" fill="white"/>
<path d="M43.4277 77.2461C42.6189 76.18 40.8612 71.7332 38.1544 63.9055C44.1284 62.2744 50.4569 60.325 57.0099 58.0772L59.2871 64.873C59.4238 65.5566 59.9023 65.8984 60.7226 65.8984C61.5429 65.8984 62.1354 65.5566 62.5 64.873L65.7524 54.9484C66.8495 54.5396 67.951 54.1231 69.0564 53.699C76.3147 50.9143 83.2414 47.9926 89.6993 45.0234C88.2762 49.3885 86.8888 53.5897 85.5371 57.627C81.6178 69.2936 79.1797 75.8333 78.2226 77.2461C76.6276 79.5247 74.2122 81.3021 70.9765 82.5781C67.7864 83.8542 64.3912 84.4922 60.791 84.4922C57.0996 84.4922 53.6816 83.877 50.5371 82.6465C47.4381 81.416 45.0683 79.6159 43.4277 77.2461Z" fill="white"/>
<path d="M126.808 13.6461C129.493 21.2617 103.325 38.31 68.3603 51.7246C33.3955 65.1392 2.87436 69.8402 0.189451 62.2246C-1.60388 57.1379 9.47522 47.8428 27.4502 38.2332L29.0016 43.2751C20.9174 48.3717 16.3734 52.915 17.3362 55.6461C19.2175 60.9823 41.4103 57.3788 66.9052 47.5974C92.4001 37.816 111.543 25.5608 109.661 20.2246C108.984 18.3044 105.677 17.5418 100.532 17.8081L102.455 11.399C116.093 9.03021 125.381 9.59897 126.808 13.6461Z" fill="white"/>
<path d="M75.8531 18.1145C70.3162 19.8652 64.5401 21.8814 58.6374 24.1461C55.4679 25.3621 52.3706 26.608 49.3606 27.874L50.8728 32.0327C53.8281 30.7532 56.9108 29.494 60.0924 28.2733C64.9147 26.4232 69.6188 24.7942 74.0897 23.4048L75.8531 18.1145Z" fill="white"/>
<path d="M217.857 83.9199H198.102L176.295 19.6621C176.158 18.9785 175.68 18.6367 174.859 18.6367C174.085 18.6367 173.515 18.9785 173.15 19.6621L151.822 83.9199H131.793C132.932 79.9551 135.37 72.071 139.107 60.2676C142.89 48.4642 146.559 37.2988 150.113 26.7715C154.078 15.0592 156.493 8.54233 157.359 7.2207C159 4.89648 161.393 3.11914 164.537 1.88867C167.682 0.658203 171.1 0.0429688 174.791 0.0429688C178.482 0.0429688 181.878 0.658203 184.977 1.88867C188.121 3.11914 190.514 4.89648 192.154 7.2207C193.157 8.58789 195.618 15.0592 199.537 26.6348C201.952 33.7441 205.553 44.9095 210.338 60.1309C213.255 69.3821 215.761 77.3118 217.857 83.9199Z" fill="white"/>
<path d="M327.164 83.9199H293.873C283.346 83.9199 275.006 81.2767 268.853 75.9902C264.023 71.8431 260.605 66.192 258.6 59.0371C257.278 54.3431 256.617 49.2389 256.617 43.7246V41.0586C256.663 40.5117 256.731 40.0332 256.822 39.623V0.384766H275.279V39.623C275.279 46.6869 276.76 52.6341 279.723 57.4648C283.141 63.0247 287.857 65.8047 293.873 65.8047H327.164V83.9199Z" fill="white"/>
<path d="M432.574 83.9199H452.33C450.234 77.3118 447.727 69.3821 444.811 60.1309C440.025 44.9095 436.425 33.7441 434.01 26.6348C430.09 15.0592 427.63 8.58789 426.627 7.2207C424.986 4.89648 422.594 3.11914 419.449 1.88867C416.35 0.658203 412.955 0.0429688 409.264 0.0429688C405.572 0.0429688 402.154 0.658203 399.01 1.88867C395.865 3.11914 393.473 4.89648 391.832 7.2207C390.966 8.54233 388.551 15.0592 384.586 26.7715C381.031 37.2988 377.363 48.4642 373.58 60.2676C369.843 72.071 367.405 79.9551 366.266 83.9199H386.295L407.623 19.6621C407.988 18.9785 408.557 18.6367 409.332 18.6367C410.152 18.6367 410.631 18.9785 410.768 19.6621L432.574 83.9199Z" fill="white"/>
<path d="M573.053 83.9199H551.383L531.764 53.2949C531.399 52.6113 530.807 52.2695 529.986 52.2695C529.166 52.2695 528.687 52.6113 528.551 53.2949L508.521 83.9199H487.057C489.29 80.3652 491.523 76.7878 493.756 73.1875C499.361 64.2552 503.463 57.6244 506.061 53.2949C508.066 49.6947 510.094 46.0944 512.144 42.4941L487.057 1H508.521L528.551 31.6934C528.687 32.377 529.166 32.7188 529.986 32.7188C530.807 32.7188 531.399 32.377 531.764 31.6934L551.383 1H573.053L548.512 42.4941L573.053 83.9199Z" fill="white"/>
<path d="M658.297 53.5L692.203 1H670.533L650.914 31.6934C650.549 32.377 649.957 32.7188 649.137 32.7188C648.316 32.7188 647.838 32.377 647.701 31.6934L627.672 1H606.207L639.771 53.5V83.9199H658.297V53.5Z" fill="white"/>
</svg>
