<?xml version="1.0" standalone="no"?>
<!DOCTYPE svg PUBLIC "-//W3C//DTD SVG 20010904//EN"
 "http://www.w3.org/TR/2001/REC-SVG-20010904/DTD/svg10.dtd">
<svg version="1.0" xmlns="http://www.w3.org/2000/svg"
 width="700.000000pt" height="700.000000pt" viewBox="0 0 700.000000 700.000000"
 preserveAspectRatio="xMidYMid meet">
<metadata>
Created by potrace 1.14, written by Peter Selinger 2001-2017
</metadata>
<g transform="translate(0.000000,700.000000) scale(0.100000,-0.100000)"
fill="#000000" stroke="none">
<path d="M1288 5502 c-39 -2 -56 -7 -53 -15 6 -19 108 -346 165 -527 28 -91
67 -212 85 -270 18 -58 54 -172 80 -255 25 -82 50 -161 55 -175 5 -14 32 -99
60 -190 258 -828 390 -1229 403 -1225 7 2 46 6 87 9 185 14 551 92 852 182 14
4 -41 179 -394 1232 -226 675 -412 1229 -414 1231 -4 4 -846 7 -926 3z"/>
<path d="M4522 5499 c-11 -4 -29 -44 -50 -110 -36 -113 -317 -973 -387 -1184
-24 -71 -98 -299 -165 -505 -68 -206 -124 -378 -127 -383 -12 -20 339 134 605
267 235 117 551 307 619 373 12 11 48 115 162 478 110 349 201 647 256 835 7
25 25 85 40 134 14 48 24 91 21 93 -8 8 -954 9 -974 2z"/>
<path d="M6027 5004 c-1 -1 -54 -5 -117 -9 -63 -3 -117 -8 -120 -10 -3 -1 -37
-6 -76 -9 -39 -4 -80 -8 -90 -10 -21 -4 -79 -13 -139 -22 -22 -3 -42 -8 -45
-10 -2 -3 -25 -74 -50 -159 -45 -149 -46 -155 -26 -155 233 -1 337 -22 397
-80 33 -32 39 -43 39 -80 0 -92 -113 -235 -301 -382 -93 -73 -341 -237 -434
-288 -33 -18 -64 -36 -70 -40 -20 -15 -93 -54 -300 -160 -579 -296 -1255 -562
-1934 -760 -41 -12 -81 -23 -90 -25 -9 -2 -61 -15 -116 -30 -94 -25 -329 -80
-384 -90 -15 -3 -37 -7 -51 -10 -293 -59 -609 -76 -755 -40 -111 28 -169 86
-158 159 19 120 218 318 511 509 54 36 72 52 68 65 -39 125 -69 218 -73 224
-4 8 -30 -6 -258 -135 -587 -334 -1002 -679 -1086 -902 -33 -87 -17 -169 45
-222 52 -45 156 -79 301 -98 46 -6 311 -6 370 0 188 18 243 24 280 30 17 3 48
7 70 11 72 10 265 45 330 58 11 3 65 14 120 25 87 18 362 86 550 136 191 52
601 181 895 283 127 44 508 186 555 207 17 7 77 32 135 54 58 23 119 48 135
55 17 8 75 33 130 56 1055 446 1978 1007 2260 1375 235 307 90 473 -418 479
-54 1 -99 1 -100 0z"/>
<path d="M3865 4519 c-126 -43 -259 -89 -295 -103 -36 -13 -110 -41 -165 -61
-55 -20 -213 -82 -352 -137 l-252 -100 36 -102 c20 -55 37 -102 38 -104 1 -1
35 12 76 29 304 127 634 252 889 334 80 26 156 52 169 59 19 9 32 35 62 130
41 124 44 137 32 135 -5 0 -111 -36 -238 -80z"/>
<path d="M4660 3199 c-74 -33 -150 -66 -167 -74 -75 -34 -104 -46 -223 -96
-138 -57 -475 -191 -585 -233 l-70 -26 -83 -254 c-46 -140 -90 -260 -98 -267
-22 -18 -108 -24 -121 -8 -6 8 -37 93 -69 189 -32 96 -59 177 -61 179 -2 3
-34 -5 -71 -17 -192 -64 -393 -129 -527 -169 -138 -41 -193 -57 -297 -84 -21
-5 -38 -14 -38 -19 0 -32 168 -477 222 -590 124 -257 460 -421 868 -424 222
-1 352 21 527 90 177 69 330 188 387 303 30 59 103 245 173 441 73 206 375
1111 371 1115 -2 2 -64 -23 -138 -56z"/>
</g>
</svg>
